<svg width="50" height="50" viewBox="0 0 50 50" fill="none" xmlns="http://www.w3.org/2000/svg">
<path fill-rule="evenodd" clip-rule="evenodd" d="M14.4728 8.50875C15.8238 8.48366 17.1729 8.62217 18.4906 8.92125C19.6001 9.16348 20.6535 9.61423 21.5948 10.2495C22.4641 10.8813 23.1519 11.7306 23.5892 12.7122C24.0918 13.9193 24.3343 15.2187 24.3008 16.5258C24.3579 17.961 23.9913 19.3813 23.2469 20.6097C22.4636 21.7698 21.381 22.6963 20.1139 23.291C21.8335 23.7546 23.3313 24.8165 24.3379 26.2858C25.3043 27.8426 25.79 29.6498 25.7343 31.4813C25.7661 32.9416 25.4642 34.3898 24.8515 35.7157C24.2851 36.8723 23.4559 37.8803 22.4301 38.6589C21.374 39.429 20.1855 39.9988 18.9238 40.3399C17.6153 40.7019 16.2636 40.8837 14.906 40.8803H0V8.50875H14.4728ZM13.6127 21.6017C14.6742 21.6455 15.7192 21.3277 16.5766 20.7004C16.9872 20.3349 17.3067 19.8783 17.5094 19.3673C17.7121 18.8562 17.7924 18.3048 17.744 17.7572C17.7715 17.1175 17.6441 16.4807 17.3727 15.9009C17.1425 15.4392 16.7846 15.0533 16.3415 14.7892C15.8927 14.4984 15.3884 14.3039 14.8606 14.2179C14.2879 14.1069 13.7051 14.0564 13.1219 14.0673H6.75275V21.6306H13.6127V21.6017ZM13.984 35.3836C14.626 35.3923 15.2666 35.3231 15.8918 35.1774C16.4632 35.0512 17.0052 34.8166 17.4882 34.4864C17.9615 34.1564 18.3439 33.7123 18.6 33.1953C18.8969 32.536 19.0333 31.8157 18.998 31.0936C19.0624 30.4354 18.9752 29.7713 18.7432 29.1521C18.5112 28.5329 18.1404 27.975 17.6594 27.5212C16.6399 26.7703 15.3905 26.3983 14.1263 26.4693H6.75275V35.3836H13.984Z" fill="#A8AFC4"/>
<path fill-rule="evenodd" clip-rule="evenodd" d="M35.3518 35.2638C35.8818 35.7551 36.5062 36.1335 37.1869 36.376C37.8677 36.6185 38.5907 36.7201 39.3119 36.6746C40.4553 36.7035 41.5764 36.3556 42.5026 35.6846C43.2561 35.1947 43.8267 34.4696 44.1259 33.6221H49.5111C48.9374 36.0349 47.5361 38.1703 45.5511 39.6571C43.6467 40.921 41.3963 41.5611 39.1118 41.4886C37.4814 41.51 35.8632 41.2035 34.3536 40.5873C32.9879 40.0177 31.7631 39.1568 30.7647 38.0648C29.7701 36.9204 29.006 35.5947 28.5145 34.1604C27.9628 32.5572 27.6927 30.8706 27.7163 29.1752C27.7063 27.5083 27.9854 25.8523 28.5413 24.2808C29.2882 22.07 30.7162 20.1526 32.6205 18.8038C34.5247 17.455 36.8073 16.7441 39.1407 16.7732C40.8634 16.7372 42.567 17.1403 44.0908 17.9447C45.4682 18.7 46.6565 19.7578 47.5662 21.0385C48.4967 22.3824 49.1637 23.8907 49.5318 25.4833C49.9354 27.1935 50.0793 28.9547 49.9587 30.7077H33.9184C33.7884 32.3547 34.3022 33.9879 35.3518 35.2638ZM42.3892 22.9525C41.9403 22.5036 41.4005 22.156 40.8059 21.9333C40.2114 21.7106 39.5761 21.6179 38.9427 21.6614C38.1024 21.6293 37.2682 21.8155 36.5213 22.2018C35.9291 22.5278 35.4065 22.9664 34.9826 23.4929C34.607 23.9866 34.3272 24.5463 34.1576 25.143C34.0048 25.6406 33.9093 26.1541 33.873 26.6734H43.8082C43.7217 25.3196 43.2285 24.0235 42.3933 22.9546L42.3892 22.9525Z" fill="#A8AFC4"/>
<path d="M32.5922 10.6702H45.0417V13.8527H32.5922V10.6702Z" fill="#A8AFC4"/>
</svg>
