<svg width="1993" height="214" viewBox="0 0 1993 214" fill="none" xmlns="http://www.w3.org/2000/svg">
<path d="M2.08616e-07 207V7.07999H72.24V151.56H228.48V207H2.08616e-07ZM501.78 7.07999V119.64C501.78 143.16 496.74 161.92 486.66 175.92C476.58 189.733 462.113 199.533 443.26 205.32C424.593 211.107 401.166 214 372.98 214C344.793 214 321.273 211.107 302.42 205.32C283.753 199.533 269.38 189.733 259.3 175.92C249.22 162.107 244.18 143.347 244.18 119.64V7.07999H316.42V117.68C316.42 132.053 321.273 142.413 330.98 148.76C340.686 155.107 354.686 158.28 372.98 158.28C391.086 158.28 404.993 155.107 414.7 148.76C424.593 142.413 429.54 132.053 429.54 117.68V7.07999H501.78ZM788.928 7.07999V207H704.928L599.928 87.44H598.248V207H529.648V7.07999H614.768L718.368 124.96H720.328V7.07999H788.928ZM956.198 0.0799937C1004.17 0.0799937 1040.29 8.85333 1064.56 26.4C1089.01 43.9467 1101.24 70.8267 1101.24 107.04C1101.24 143.253 1089.01 170.133 1064.56 187.68C1040.29 205.227 1004.17 214 956.198 214C908.411 214 872.291 205.227 847.838 187.68C823.571 170.133 811.438 143.253 811.438 107.04C811.438 70.8267 823.571 43.9467 847.838 26.4C872.291 8.85333 908.411 0.0799937 956.198 0.0799937ZM956.198 159.68C978.038 159.68 994.464 155.2 1005.48 146.24C1016.49 137.093 1022 124.027 1022 107.04C1022 90.0533 1016.49 77.08 1005.48 68.12C994.464 58.9733 978.038 54.4 956.198 54.4C934.358 54.4 917.931 58.9733 906.918 68.12C896.091 77.08 890.678 90.0533 890.678 107.04C890.678 124.027 896.091 137.093 906.918 146.24C917.931 155.2 934.358 159.68 956.198 159.68ZM1316.38 207L1283.9 85.76H1281.94L1249.74 207H1161.26L1100.5 7.07999H1178.34L1209.98 130H1211.94L1244.42 7.07999H1321.7L1354.18 130H1356.14L1388.06 7.07999H1465.34L1403.46 207H1316.38ZM1550.17 82.96H1698.29V126.36H1550.17V158.56H1707.81V207H1477.93V7.07999H1705.01V54.4H1550.17V82.96ZM1956.23 99.76C1967.43 102.373 1976.2 107.413 1982.55 114.88C1988.89 122.347 1992.07 133.453 1992.07 148.2C1992.07 167.8 1986.47 182.547 1975.27 192.44C1964.07 202.147 1945.77 207 1920.39 207H1732.23V7.07999H1916.47C1940.36 7.07999 1957.72 11.56 1968.55 20.52C1979.37 29.2933 1984.79 41.9867 1984.79 58.6C1984.79 69.24 1982.27 77.8267 1977.23 84.36C1972.37 90.8933 1965.37 95.3733 1956.23 97.8V99.76ZM1887.35 86.04C1894.07 86.04 1899.01 84.7333 1902.19 82.12C1905.36 79.32 1906.95 75.0267 1906.95 69.24C1906.95 63.64 1905.36 59.5333 1902.19 56.92C1899.01 54.12 1894.07 52.72 1887.35 52.72H1804.47V86.04H1887.35ZM1890.99 162.48C1898.64 162.48 1904.15 160.987 1907.51 158C1911.05 154.827 1912.83 150.067 1912.83 143.72C1912.83 137.187 1911.05 132.427 1907.51 129.44C1904.15 126.453 1898.64 124.96 1890.99 124.96H1804.47V162.48H1890.99Z" fill="#1C1D22"/>
</svg>
