<svg width="90" height="60" viewBox="0 0 90 60" fill="none" xmlns="http://www.w3.org/2000/svg">
<path d="M62.4856 8.48021C62.2916 8.31986 62.0963 8.16217 61.8983 8.00716C61.5305 7.71985 61.156 7.4419 60.7761 7.17197C60.5997 7.04903 60.4232 6.92742 60.2454 6.80849C59.9275 6.59468 59.6042 6.38622 59.2768 6.18577C59.0653 6.05482 58.8525 5.92787 58.6383 5.80493C54.4354 3.3675 49.5455 1.96973 44.3283 1.96973C28.6442 1.96973 15.9277 14.5831 15.9277 30.1417C15.9277 36.8781 18.3094 43.0585 22.2833 47.9053C24.0035 47.2425 25.8005 46.4808 27.6541 45.6282C23.8297 41.5765 21.4885 36.1311 21.4885 30.1417C21.4885 17.6286 31.7142 7.48466 44.3283 7.48466C53.479 7.48466 61.3729 12.8219 65.0168 20.5297C66.1294 19.5235 67.1748 18.5386 68.1487 17.5818C68.5084 17.2277 68.86 16.8789 69.1994 16.5328C67.4819 13.4486 65.1973 10.7199 62.4856 8.48021ZM72.551 26.9854C72.4756 26.3106 72.3759 25.6437 72.2533 24.9849C72.1186 24.2673 71.9583 23.5591 71.7697 22.8615C71.5137 21.9061 71.2066 20.9707 70.8537 20.058C69.4958 21.3916 68.0019 22.7787 66.3773 24.2072C66.6157 25.0798 66.803 25.9751 66.935 26.8878C67.0401 27.6188 67.1115 28.3618 67.1451 29.1128C67.1613 29.4549 67.1694 29.797 67.1694 30.1417C67.1694 30.5373 67.1586 30.9302 67.1384 31.3204C66.5201 43.2857 56.545 52.8002 44.3283 52.8002C41.1586 52.8002 38.1411 52.1587 35.3971 51.0028C34.6859 50.7008 33.9921 50.3667 33.3186 49.9979C32.7595 49.6933 32.2153 49.3645 31.6859 49.0131C31.2414 48.7218 30.809 48.4144 30.3887 48.0924C28.4179 48.9997 26.5118 49.8028 24.6932 50.4964C25.1014 50.8852 25.5203 51.2607 25.9527 51.6229C26.3946 51.997 26.8485 52.3552 27.3133 52.7013C27.8871 53.1276 28.4785 53.5338 29.0847 53.9173C33.4896 56.7022 38.7177 58.3151 44.3283 58.3151C60.0123 58.3151 72.7275 45.7017 72.7275 30.1417C72.7275 29.0754 72.6682 28.021 72.551 26.9854Z" fill="url(#paint0_linear_1982_468)"/>
<path d="M72.55 26.9857C70.8446 28.4182 69.0368 29.8668 67.1374 31.3207C62.7042 34.7162 57.7685 38.1452 52.4596 41.4699C52.1147 41.6864 51.7685 41.9016 51.4237 42.1154C45.9289 45.5123 40.5191 48.4949 35.3961 51.0031C33.2367 52.0602 31.1272 53.033 29.0837 53.9176C28.6122 54.1208 28.1461 54.3199 27.6814 54.5136C16.9492 59.0063 8.19178 60.9306 3.68849 59.5715C2.4815 59.2081 1.58031 58.6094 1.02935 57.7608C0.618488 57.1301 0.335601 56.466 0.172604 55.7751C-0.3797 53.4486 0.41912 50.8121 2.20131 48.0593C3.19411 46.5238 4.4927 44.9523 6.03107 43.3782C7.83481 41.5327 9.96859 39.686 12.3327 37.8873C8.55011 41.8869 4.54254 46.6468 5.40737 51.1435C5.44374 51.3372 5.49089 51.5323 5.54746 51.7261C5.97583 53.2 7.04542 53.8334 8.12308 54.2089C11.0395 55.2232 16.4952 53.4205 22.9787 51.1274C23.5404 50.9283 24.1116 50.7185 24.6922 50.4967C26.5108 49.8031 28.4169 48.9987 30.3877 48.0913C35.4055 45.7809 40.8478 42.7969 46.3614 39.2383C47.2289 38.6797 48.0991 38.1051 48.9693 37.5185C55.7303 32.9483 61.6063 28.4022 66.3763 24.2075C67.9995 22.7803 69.4948 21.3933 70.8527 20.0583C77.9639 13.0774 81.3276 7.56248 79.6976 5.36292C79.6976 5.36292 79.6545 5.2373 79.4282 5.09833C79.0497 4.86447 78.1579 4.59187 76.0942 4.79632C73.6196 5.04087 69.4611 5.97094 62.4846 8.48052C60.662 9.13397 58.6481 9.89834 56.42 10.783C58.3612 9.77407 60.1838 8.85068 61.8959 8.00613C63.8977 7.01994 65.7486 6.14198 67.4594 5.36425C68.4616 4.90857 69.418 4.4863 70.3273 4.09743C76.703 1.36869 80.8696 0.222143 83.6769 0.029715C86.9153 -0.192112 88.3459 0.856889 89.2727 2.21324C89.3185 2.27738 89.3602 2.3442 89.4033 2.40968C92.1608 6.74332 85.16 16.3981 72.55 26.9844V26.9857Z" fill="url(#paint1_linear_1982_468)"/>
<defs>
<linearGradient id="paint0_linear_1982_468" x1="38.5843" y1="20.9816" x2="56.9702" y2="34.4957" gradientUnits="userSpaceOnUse">
<stop stop-color="#EBF9FF"/>
<stop offset="1" stop-color="#8E8E8E"/>
</linearGradient>
<linearGradient id="paint1_linear_1982_468" x1="35.8997" y1="20.245" x2="56.3312" y2="42.5913" gradientUnits="userSpaceOnUse">
<stop stop-color="#EBF9FF"/>
<stop offset="1" stop-color="#8E8E8E"/>
</linearGradient>
</defs>
</svg>
