<svg width="500" height="350" viewBox="0 0 500 350" fill="none" xmlns="http://www.w3.org/2000/svg">
<line y1="49.5" x2="50" y2="49.5" stroke="#363636"/>
<line x1="49.5" y1="50" x2="49.5" stroke="#363636"/>
<line x1="50" y1="49.5" x2="100" y2="49.5" stroke="#363636"/>
<line x1="99.5" y1="50" x2="99.5" stroke="#363636"/>
<line x1="100" y1="49.5" x2="150" y2="49.5" stroke="#363636"/>
<line x1="149.5" y1="50" x2="149.5" stroke="#363636"/>
<line x1="150" y1="49.5" x2="200" y2="49.5" stroke="#363636"/>
<line x1="199.5" y1="50" x2="199.5" stroke="#363636"/>
<line x1="200" y1="49.5" x2="250" y2="49.5" stroke="#363636"/>
<line x1="249.5" y1="50" x2="249.5" stroke="#363636"/>
<line x1="250" y1="49.5" x2="300" y2="49.5" stroke="#363636"/>
<line x1="299.5" y1="50" x2="299.5" stroke="#363636"/>
<line x1="300" y1="49.5" x2="350" y2="49.5" stroke="#363636"/>
<line x1="349.5" y1="50" x2="349.5" stroke="#363636"/>
<line x1="350" y1="49.5" x2="400" y2="49.5" stroke="#363636"/>
<line x1="399.5" y1="50" x2="399.5" stroke="#363636"/>
<line x1="400" y1="49.5" x2="450" y2="49.5" stroke="#363636"/>
<line x1="449.5" y1="50" x2="449.5" stroke="#363636"/>
<line x1="450" y1="49.5" x2="500" y2="49.5" stroke="#363636"/>
<line y1="99.5" x2="50" y2="99.5" stroke="#363636"/>
<line x1="49.5" y1="100" x2="49.5" y2="50" stroke="#363636"/>
<line x1="50" y1="99.5" x2="100" y2="99.5" stroke="#363636"/>
<line x1="99.5" y1="100" x2="99.5" y2="50" stroke="#363636"/>
<line x1="100" y1="99.5" x2="150" y2="99.5" stroke="#363636"/>
<line x1="149.5" y1="100" x2="149.5" y2="50" stroke="#363636"/>
<line x1="150" y1="99.5" x2="200" y2="99.5" stroke="#363636"/>
<line x1="199.5" y1="100" x2="199.5" y2="50" stroke="#363636"/>
<line x1="200" y1="99.5" x2="250" y2="99.5" stroke="#363636"/>
<line x1="249.5" y1="100" x2="249.5" y2="50" stroke="#363636"/>
<line x1="250" y1="99.5" x2="300" y2="99.5" stroke="#363636"/>
<line x1="299.5" y1="100" x2="299.5" y2="50" stroke="#363636"/>
<line x1="300" y1="99.5" x2="350" y2="99.5" stroke="#363636"/>
<line x1="349.5" y1="100" x2="349.5" y2="50" stroke="#363636"/>
<line x1="350" y1="99.5" x2="400" y2="99.5" stroke="#363636"/>
<line x1="399.5" y1="100" x2="399.5" y2="50" stroke="#363636"/>
<line x1="400" y1="99.5" x2="450" y2="99.5" stroke="#363636"/>
<line x1="449.5" y1="100" x2="449.5" y2="50" stroke="#363636"/>
<line x1="450" y1="99.5" x2="500" y2="99.5" stroke="#363636"/>
<line y1="149.5" x2="50" y2="149.5" stroke="#363636"/>
<line x1="49.5" y1="150" x2="49.5" y2="100" stroke="#363636"/>
<line x1="50" y1="149.5" x2="100" y2="149.5" stroke="#363636"/>
<line x1="99.5" y1="150" x2="99.5" y2="100" stroke="#363636"/>
<line x1="100" y1="149.5" x2="150" y2="149.5" stroke="#363636"/>
<line x1="149.5" y1="150" x2="149.5" y2="100" stroke="#363636"/>
<line x1="150" y1="149.5" x2="200" y2="149.5" stroke="#363636"/>
<line x1="199.5" y1="150" x2="199.5" y2="100" stroke="#363636"/>
<line x1="200" y1="149.5" x2="250" y2="149.5" stroke="#363636"/>
<line x1="249.5" y1="150" x2="249.5" y2="100" stroke="#363636"/>
<line x1="250" y1="149.5" x2="300" y2="149.5" stroke="#363636"/>
<line x1="299.5" y1="150" x2="299.5" y2="100" stroke="#363636"/>
<line x1="300" y1="149.5" x2="350" y2="149.5" stroke="#363636"/>
<line x1="349.5" y1="150" x2="349.5" y2="100" stroke="#363636"/>
<line x1="350" y1="149.5" x2="400" y2="149.5" stroke="#363636"/>
<line x1="399.5" y1="150" x2="399.5" y2="100" stroke="#363636"/>
<line x1="400" y1="149.5" x2="450" y2="149.5" stroke="#363636"/>
<line x1="449.5" y1="150" x2="449.5" y2="100" stroke="#363636"/>
<line x1="450" y1="149.5" x2="500" y2="149.5" stroke="#363636"/>
<line y1="199.5" x2="50" y2="199.5" stroke="#363636"/>
<line x1="49.5" y1="200" x2="49.5" y2="150" stroke="#363636"/>
<line x1="50" y1="199.5" x2="100" y2="199.5" stroke="#363636"/>
<line x1="99.5" y1="200" x2="99.5" y2="150" stroke="#363636"/>
<line x1="100" y1="199.5" x2="150" y2="199.5" stroke="#363636"/>
<line x1="149.5" y1="200" x2="149.5" y2="150" stroke="#363636"/>
<line x1="150" y1="199.5" x2="200" y2="199.5" stroke="#363636"/>
<line x1="199.5" y1="200" x2="199.5" y2="150" stroke="#363636"/>
<line x1="200" y1="199.5" x2="250" y2="199.5" stroke="#363636"/>
<line x1="249.5" y1="200" x2="249.5" y2="150" stroke="#363636"/>
<line x1="250" y1="199.5" x2="300" y2="199.5" stroke="#363636"/>
<line x1="299.5" y1="200" x2="299.5" y2="150" stroke="#363636"/>
<line x1="300" y1="199.5" x2="350" y2="199.5" stroke="#363636"/>
<line x1="349.5" y1="200" x2="349.5" y2="150" stroke="#363636"/>
<line x1="350" y1="199.5" x2="400" y2="199.5" stroke="#363636"/>
<line x1="399.5" y1="200" x2="399.5" y2="150" stroke="#363636"/>
<line x1="400" y1="199.5" x2="450" y2="199.5" stroke="#363636"/>
<line x1="449.5" y1="200" x2="449.5" y2="150" stroke="#363636"/>
<line x1="450" y1="199.5" x2="500" y2="199.5" stroke="#363636"/>
<line y1="249.5" x2="50" y2="249.5" stroke="#363636"/>
<line x1="49.5" y1="250" x2="49.5" y2="200" stroke="#363636"/>
<line x1="50" y1="249.5" x2="100" y2="249.5" stroke="#363636"/>
<line x1="99.5" y1="250" x2="99.5" y2="200" stroke="#363636"/>
<line x1="100" y1="249.5" x2="150" y2="249.5" stroke="#363636"/>
<line x1="149.5" y1="250" x2="149.5" y2="200" stroke="#363636"/>
<line x1="150" y1="249.5" x2="200" y2="249.5" stroke="#363636"/>
<line x1="199.5" y1="250" x2="199.5" y2="200" stroke="#363636"/>
<line x1="200" y1="249.5" x2="250" y2="249.5" stroke="#363636"/>
<line x1="249.5" y1="250" x2="249.5" y2="200" stroke="#363636"/>
<line x1="250" y1="249.5" x2="300" y2="249.5" stroke="#363636"/>
<line x1="299.5" y1="250" x2="299.5" y2="200" stroke="#363636"/>
<line x1="300" y1="249.5" x2="350" y2="249.5" stroke="#363636"/>
<line x1="349.5" y1="250" x2="349.5" y2="200" stroke="#363636"/>
<line x1="350" y1="249.5" x2="400" y2="249.5" stroke="#363636"/>
<line x1="399.5" y1="250" x2="399.5" y2="200" stroke="#363636"/>
<line x1="400" y1="249.5" x2="450" y2="249.5" stroke="#363636"/>
<line x1="449.5" y1="250" x2="449.5" y2="200" stroke="#363636"/>
<line x1="450" y1="249.5" x2="500" y2="249.5" stroke="#363636"/>
<line y1="299.5" x2="50" y2="299.5" stroke="#363636"/>
<line x1="49.5" y1="300" x2="49.5" y2="250" stroke="#363636"/>
<line x1="50" y1="299.5" x2="100" y2="299.5" stroke="#363636"/>
<line x1="99.5" y1="300" x2="99.5" y2="250" stroke="#363636"/>
<line x1="100" y1="299.5" x2="150" y2="299.5" stroke="#363636"/>
<line x1="149.5" y1="300" x2="149.5" y2="250" stroke="#363636"/>
<line x1="150" y1="299.5" x2="200" y2="299.5" stroke="#363636"/>
<line x1="199.5" y1="300" x2="199.5" y2="250" stroke="#363636"/>
<line x1="200" y1="299.5" x2="250" y2="299.5" stroke="#363636"/>
<line x1="249.5" y1="300" x2="249.5" y2="250" stroke="#363636"/>
<line x1="250" y1="299.5" x2="300" y2="299.5" stroke="#363636"/>
<line x1="299.5" y1="300" x2="299.5" y2="250" stroke="#363636"/>
<line x1="300" y1="299.5" x2="350" y2="299.5" stroke="#363636"/>
<line x1="349.5" y1="300" x2="349.5" y2="250" stroke="#363636"/>
<line x1="350" y1="299.5" x2="400" y2="299.5" stroke="#363636"/>
<line x1="399.5" y1="300" x2="399.5" y2="250" stroke="#363636"/>
<line x1="400" y1="299.5" x2="450" y2="299.5" stroke="#363636"/>
<line x1="449.5" y1="300" x2="449.5" y2="250" stroke="#363636"/>
<line x1="450" y1="299.5" x2="500" y2="299.5" stroke="#363636"/>
<line x1="49.5" y1="350" x2="49.5" y2="300" stroke="#363636"/>
<line x1="99.5" y1="350" x2="99.5" y2="300" stroke="#363636"/>
<line x1="149.5" y1="350" x2="149.5" y2="300" stroke="#363636"/>
<line x1="199.5" y1="350" x2="199.5" y2="300" stroke="#363636"/>
<line x1="249.5" y1="350" x2="249.5" y2="300" stroke="#363636"/>
<line x1="299.5" y1="350" x2="299.5" y2="300" stroke="#363636"/>
<line x1="349.5" y1="350" x2="349.5" y2="300" stroke="#363636"/>
<line x1="399.5" y1="350" x2="399.5" y2="300" stroke="#363636"/>
<line x1="449.5" y1="350" x2="449.5" y2="300" stroke="#363636"/>
</svg>
