<svg width="750" height="750" viewBox="0 0 750 750" fill="none" xmlns="http://www.w3.org/2000/svg">
<rect width="750" height="750" rx="20" fill="url(#paint0_linear_2347_5222)"/>
<path d="M504.851 214.462C503.411 213.262 501.961 212.082 500.491 210.922C497.761 208.772 494.981 206.692 492.161 204.672C490.851 203.752 489.541 202.842 488.221 201.952C485.861 200.352 483.461 198.792 481.031 197.292C479.461 196.312 477.881 195.362 476.291 194.442C445.091 176.202 408.791 165.742 370.061 165.742C253.631 165.742 159.231 260.132 159.231 376.562C159.231 426.972 176.911 473.222 206.411 509.492C219.181 504.532 232.521 498.832 246.281 492.452C217.891 462.132 200.511 421.382 200.511 376.562C200.511 282.922 276.421 207.012 370.061 207.012C437.991 207.012 496.591 246.952 523.641 304.632C531.901 297.102 539.661 289.732 546.891 282.572C549.561 279.922 552.171 277.312 554.691 274.722C541.941 251.642 524.981 231.222 504.851 214.462ZM579.571 352.942C579.011 347.892 578.271 342.902 577.361 337.972C576.361 332.602 575.171 327.302 573.771 322.082C571.871 314.932 569.591 307.932 566.971 301.102C556.891 311.082 545.801 321.462 533.741 332.152C535.511 338.682 536.901 345.382 537.881 352.212C538.661 357.682 539.191 363.242 539.441 368.862C539.561 371.422 539.621 373.982 539.621 376.562C539.621 379.522 539.541 382.462 539.391 385.382C534.801 474.922 460.751 546.122 370.061 546.122C346.531 546.122 324.131 541.322 303.761 532.672C298.481 530.412 293.331 527.912 288.331 525.152C284.181 522.872 280.141 520.412 276.211 517.782C272.911 515.602 269.701 513.302 266.581 510.892C251.951 517.682 237.801 523.692 224.301 528.882C227.331 531.792 230.441 534.602 233.651 537.312C236.931 540.112 240.301 542.792 243.751 545.382C248.011 548.572 252.401 551.612 256.901 554.482C289.601 575.322 328.411 587.392 370.061 587.392C486.491 587.392 580.881 493.002 580.881 376.562C580.881 368.582 580.441 360.692 579.571 352.942Z" fill="#E2E2E2"/>
<path d="M579.571 352.942C566.911 363.662 553.491 374.502 539.391 385.382C506.481 410.792 469.841 436.452 430.431 461.332C427.871 462.952 425.301 464.562 422.741 466.162C381.951 491.582 341.791 513.902 303.761 532.672C287.731 540.582 272.071 547.862 256.901 554.482C253.401 556.002 249.941 557.492 246.491 558.942C166.821 592.562 101.811 606.962 68.3813 596.792C59.4213 594.072 52.7313 589.592 48.6413 583.242C45.5913 578.522 43.4913 573.552 42.2813 568.382C38.1813 550.972 44.1113 531.242 57.3413 510.642C64.7113 499.152 74.3513 487.392 85.7713 475.612C99.1613 461.802 115.001 447.982 132.551 434.522C104.471 464.452 74.7213 500.072 81.1413 533.722C81.4113 535.172 81.7613 536.632 82.1813 538.082C85.3613 549.112 93.3013 553.852 101.301 556.662C122.951 564.252 163.451 550.762 211.581 533.602C215.751 532.112 219.991 530.542 224.301 528.882C237.801 523.692 251.951 517.672 266.581 510.882C303.831 493.592 344.231 471.262 385.161 444.632C391.601 440.452 398.061 436.152 404.521 431.762C454.711 397.562 498.331 363.542 533.741 332.152C545.791 321.472 556.891 311.092 566.971 301.102C619.761 248.862 644.731 207.592 632.631 191.132C632.631 191.132 632.311 190.192 630.631 189.152C627.821 187.402 621.201 185.362 605.881 186.892C587.511 188.722 556.641 195.682 504.851 214.462C491.321 219.352 476.371 225.072 459.831 231.692C474.241 224.142 487.771 217.232 500.481 210.912C515.341 203.532 529.081 196.962 541.781 191.142C549.221 187.732 556.321 184.572 563.071 181.662C610.401 161.242 641.331 152.662 662.171 151.222C686.211 149.562 696.831 157.412 703.711 167.562C704.051 168.042 704.361 168.542 704.681 169.032C725.151 201.462 673.181 273.712 579.571 352.932V352.942Z" fill="#E2E2E2"/>
<defs>
<linearGradient id="paint0_linear_2347_5222" x1="375" y1="0" x2="375" y2="750" gradientUnits="userSpaceOnUse">
<stop stop-color="#656974"/>
<stop offset="1" stop-color="#1A1B20"/>
</linearGradient>
</defs>
</svg>
